<svg width="100" height="100" viewBox="0 0 100 100" fill="none" xmlns="http://www.w3.org/2000/svg">
<rect width="100" height="100" rx="50" fill="#382121"/>
<g clip-path="url(#clip0_22_178)">
<mask id="mask0_22_178" style="mask-type:luminance" maskUnits="userSpaceOnUse" x="15" y="15" width="70" height="70">
<path d="M15 15H85V85H15V15Z" fill="white"/>
</mask>
<g mask="url(#mask0_22_178)">
<path d="M79.1667 35.4167H58.75V29.5833H79.1667V35.4167ZM84.2008 64.5833C82.9117 68.3663 78.2829 73.3333 69.3229 73.3333C60.3571 73.3333 53.0946 68.2904 53.0946 56.7813C53.0946 45.3771 59.8758 39.5146 69.0371 39.5146C78.0262 39.5146 83.5154 44.7121 84.7142 52.4238C84.9417 53.8996 85.0321 55.8888 84.9912 58.6654H61.5792C61.9583 68.0308 71.7379 68.3254 74.9608 64.5833H84.2008ZM61.7833 52.9167H76.2646C75.9583 48.4046 72.9512 46.4446 69.04 46.4446C64.7642 46.4446 62.3988 48.6846 61.7833 52.9167ZM33.8592 73.2983H15V29.6446H35.2796C51.2512 29.8808 51.5546 45.5229 43.2129 49.7871C53.3075 53.4621 53.6458 73.2983 33.8592 73.2983ZM23.75 47.0833H34.2033C41.5183 47.0833 42.6792 38.3333 33.2933 38.3333H23.75V47.0833ZM33.6404 55.8333H23.75V64.63H33.4946C42.405 64.63 41.8596 55.8333 33.6404 55.8333Z" fill="white"/>
</g>
</g>
<defs>
<clipPath id="clip0_22_178">
<rect width="70" height="70" fill="white" transform="translate(15 15)"/>
</clipPath>
</defs>
</svg>
