<svg width="50" height="50" viewBox="0 0 50 50" fill="none" xmlns="http://www.w3.org/2000/svg">
<rect width="50" height="50" rx="25" fill="white"/>
<mask id="mask0_1_27" style="mask-type:alpha" maskUnits="userSpaceOnUse" x="5" y="5" width="40" height="40">
<rect x="5" y="5" width="40" height="40" fill="white"/>
</mask>
<g mask="url(#mask0_1_27)">
<path d="M25 41.6667C22.7222 41.6667 20.5694 41.2292 18.5416 40.3542C16.5139 39.4792 14.743 38.2847 13.2291 36.7708C11.7153 35.2569 10.5208 33.4861 9.64581 31.4583C8.77081 29.4306 8.33331 27.2778 8.33331 25C8.33331 22.6944 8.77081 20.5347 9.64581 18.5208C10.5208 16.5069 11.7153 14.7431 13.2291 13.2292C14.743 11.7153 16.5139 10.5208 18.5416 9.64583C20.5694 8.77083 22.7222 8.33333 25 8.33333C27.3055 8.33333 29.4653 8.77083 31.4791 9.64583C33.493 10.5208 35.2569 11.7153 36.7708 13.2292C38.2847 14.7431 39.4791 16.5069 40.3541 18.5208C41.2291 20.5347 41.6666 22.6944 41.6666 25C41.6666 27.2778 41.2291 29.4306 40.3541 31.4583C39.4791 33.4861 38.2847 35.2569 36.7708 36.7708C35.2569 38.2847 33.493 39.4792 31.4791 40.3542C29.4653 41.2292 27.3055 41.6667 25 41.6667ZM25 38.25C25.7222 37.25 26.3472 36.2083 26.875 35.125C27.4028 34.0417 27.8333 32.8889 28.1666 31.6667H21.8333C22.1666 32.8889 22.5972 34.0417 23.125 35.125C23.6528 36.2083 24.2778 37.25 25 38.25ZM20.6666 37.5833C20.1666 36.6667 19.7291 35.7153 19.3541 34.7292C18.9791 33.7431 18.6666 32.7222 18.4166 31.6667H13.5C14.3055 33.0556 15.3125 34.2639 16.5208 35.2917C17.7291 36.3194 19.1111 37.0833 20.6666 37.5833ZM29.3333 37.5833C30.8889 37.0833 32.2708 36.3194 33.4791 35.2917C34.6875 34.2639 35.6944 33.0556 36.5 31.6667H31.5833C31.3333 32.7222 31.0208 33.7431 30.6458 34.7292C30.2708 35.7153 29.8333 36.6667 29.3333 37.5833ZM12.0833 28.3333H17.75C17.6666 27.7778 17.6041 27.2292 17.5625 26.6875C17.5208 26.1458 17.5 25.5833 17.5 25C17.5 24.4167 17.5208 23.8542 17.5625 23.3125C17.6041 22.7708 17.6666 22.2222 17.75 21.6667H12.0833C11.9444 22.2222 11.8403 22.7708 11.7708 23.3125C11.7014 23.8542 11.6666 24.4167 11.6666 25C11.6666 25.5833 11.7014 26.1458 11.7708 26.6875C11.8403 27.2292 11.9444 27.7778 12.0833 28.3333ZM21.0833 28.3333H28.9166C29 27.7778 29.0625 27.2292 29.1041 26.6875C29.1458 26.1458 29.1666 25.5833 29.1666 25C29.1666 24.4167 29.1458 23.8542 29.1041 23.3125C29.0625 22.7708 29 22.2222 28.9166 21.6667H21.0833C21 22.2222 20.9375 22.7708 20.8958 23.3125C20.8541 23.8542 20.8333 24.4167 20.8333 25C20.8333 25.5833 20.8541 26.1458 20.8958 26.6875C20.9375 27.2292 21 27.7778 21.0833 28.3333ZM32.25 28.3333H37.9166C38.0555 27.7778 38.1597 27.2292 38.2291 26.6875C38.2986 26.1458 38.3333 25.5833 38.3333 25C38.3333 24.4167 38.2986 23.8542 38.2291 23.3125C38.1597 22.7708 38.0555 22.2222 37.9166 21.6667H32.25C32.3333 22.2222 32.3958 22.7708 32.4375 23.3125C32.4791 23.8542 32.5 24.4167 32.5 25C32.5 25.5833 32.4791 26.1458 32.4375 26.6875C32.3958 27.2292 32.3333 27.7778 32.25 28.3333ZM31.5833 18.3333H36.5C35.6944 16.9444 34.6875 15.7361 33.4791 14.7083C32.2708 13.6806 30.8889 12.9167 29.3333 12.4167C29.8333 13.3333 30.2708 14.2847 30.6458 15.2708C31.0208 16.2569 31.3333 17.2778 31.5833 18.3333ZM21.8333 18.3333H28.1666C27.8333 17.1111 27.4028 15.9583 26.875 14.875C26.3472 13.7917 25.7222 12.75 25 11.75C24.2778 12.75 23.6528 13.7917 23.125 14.875C22.5972 15.9583 22.1666 17.1111 21.8333 18.3333ZM13.5 18.3333H18.4166C18.6666 17.2778 18.9791 16.2569 19.3541 15.2708C19.7291 14.2847 20.1666 13.3333 20.6666 12.4167C19.1111 12.9167 17.7291 13.6806 16.5208 14.7083C15.3125 15.7361 14.3055 16.9444 13.5 18.3333Z" fill="#382121"/>
</g>
</svg>
