<svg width="101" height="100" viewBox="0 0 101 100" fill="none" xmlns="http://www.w3.org/2000/svg">
<rect x="0.5" width="100" height="100" rx="50" fill="#382121"/>
<path d="M51.8387 19.8431C51.4506 19.5405 50.9725 19.3762 50.4803 19.3762C49.9881 19.3762 49.51 19.5405 49.1219 19.8431L17.6875 44.3541L20.4066 47.7928L24.25 44.7959V71.875C24.2523 73.0346 24.714 74.1461 25.534 74.966C26.3539 75.786 27.4654 76.2477 28.625 76.25H72.375C73.5346 76.2477 74.6461 75.786 75.466 74.966C76.286 74.1461 76.7477 73.0346 76.75 71.875V44.8156L80.5934 47.8125L83.3125 44.3738L51.8387 19.8431ZM54.875 71.875H46.125V54.375H54.875V71.875ZM59.25 71.875V54.375C59.2488 53.215 58.7875 52.1029 57.9673 51.2827C57.1471 50.4625 56.035 50.0012 54.875 50H46.125C44.965 50.0012 43.8529 50.4625 43.0327 51.2827C42.2125 52.1029 41.7512 53.215 41.75 54.375V71.875H28.625V41.3856L50.5 24.345L72.375 41.4075V71.875H59.25Z" fill="white"/>
</svg>
