<svg width="100" height="100" viewBox="0 0 100 100" fill="none" xmlns="http://www.w3.org/2000/svg">
<rect width="100" height="100" rx="50" fill="#382121"/>
<path d="M35.2417 29.5833C35.2409 31.1304 34.6256 32.6138 33.5311 33.7073C32.4366 34.8007 30.9525 35.4145 29.4054 35.4137C27.8583 35.413 26.3749 34.7976 25.2815 33.7031C24.1881 32.6086 23.5742 31.1246 23.575 29.5775C23.5758 28.0304 24.1911 26.547 25.2856 25.4536C26.3801 24.3601 27.8642 23.7463 29.4113 23.7471C30.9584 23.7478 32.4418 24.3632 33.5352 25.4577C34.6286 26.5522 35.2425 28.0362 35.2417 29.5833ZM35.4167 39.7333H23.75V76.25H35.4167V39.7333ZM53.85 39.7333H42.2417V76.25H53.7333V57.0875C53.7333 46.4125 67.6458 45.4208 67.6458 57.0875V76.25H79.1667V53.1208C79.1667 35.125 58.575 35.7958 53.7333 44.6333L53.85 39.7333Z" fill="white"/>
</svg>
